<svg id="Page-1" xmlns="http://www.w3.org/2000/svg" width="64.567" height="64.567" viewBox="0 0 64.567 64.567">
  <g id="Dribbble-Light-Preview">
    <g id="icons">
      <path id="shopping_cart-_1135_" data-name="shopping_cart-[#1135]" d="M218.386,3017.11H174.18a3.227,3.227,0,0,1-3.2-3.684l3.69-25.827a3.227,3.227,0,0,1,3.2-2.772h2.27v6.457a3.228,3.228,0,1,0,6.457,0v-6.457h19.37v6.457a3.228,3.228,0,1,0,6.457,0v-6.457H214.7a3.227,3.227,0,0,1,3.2,2.772l3.69,25.827a3.227,3.227,0,0,1-3.2,3.684Zm-31.79-41.969a9.7,9.7,0,0,1,9.685-9.685c5.343,0,9.685,3.229,9.685,9.685v3.229H186.6Zm41.9,41.056-4.613-32.283a6.454,6.454,0,0,0-6.392-5.544h-5.072v-3.229c0-9.685-7.241-16.142-16.142-16.142a16.162,16.162,0,0,0-16.142,16.142v3.229h-4.084c-3.212,0-6.925,2.363-7.38,5.544l-4.61,32.283a6.457,6.457,0,0,0,6.392,7.37h51.651a6.457,6.457,0,0,0,6.392-7.37Z" transform="translate(-164 -2959)" fill="#4a4a4a" fill-rule="evenodd"/>
    </g>
  </g>
</svg>
