<svg xmlns="http://www.w3.org/2000/svg" width="47.331" height="66.421" viewBox="0 0 47.331 66.421">
  <g id="Page-1" transform="matrix(0.996, -0.087, 0.087, 0.996, 0, 3.661)">
    <g id="Dribbble-Light-Preview">
      <g id="icons">
        <path id="shopping_cart-_1135_" data-name="shopping_cart-[#1135]" d="M199.378,3015.7H170.622c-1.279,0-2.26-1.7-2.079-3.594l2.4-25.2c.147-1.552,1.033-2.705,2.079-2.705H174.5v6.3c0,1.739.941,3.15,2.1,3.15s2.1-1.411,2.1-3.15v-6.3h12.6v6.3c0,1.739.941,3.15,2.1,3.15s2.1-1.411,2.1-3.15v-6.3h1.478c1.046,0,1.932,1.153,2.079,2.705l2.4,25.2c.181,1.9-.8,3.594-2.079,3.594Zm-20.679-40.95c0-5.21,2.827-9.449,6.3-9.449s6.3,3.15,6.3,9.449v3.15H178.7Zm27.258,40.059-3-31.5c-.294-3.1-2.066-5.409-4.158-5.409h-3.3v-3.15c0-9.449-4.71-15.75-10.5-15.75s-10.5,7.065-10.5,15.75v3.15h-2.657c-2.09,0-4.5,2.306-4.8,5.409l-3,31.5c-.361,3.8,1.6,7.191,4.158,7.191h33.6c2.556,0,4.519-3.4,4.158-7.191Z" transform="translate(-164 -2959)" fill="#4a4a4a" fill-rule="evenodd"/>
      </g>
    </g>
  </g>
</svg>
